<mxfile host="app.diagrams.net" modified="2023-06-23T10:34:36.502Z" agent="Mozilla/5.0 (Windows NT 10.0; Win64; x64) AppleWebKit/537.36 (KHTML, like Gecko) Chrome/114.0.0.0 Safari/537.36" etag="AlpVlOc-erSJ5niiZNwi" version="21.5.0" type="device">
  <diagram name="Trang-1" id="dzVIdA4Ulef_AZbk8khy">
    <mxGraphModel dx="2725" dy="1085" grid="1" gridSize="10" guides="1" tooltips="1" connect="1" arrows="1" fold="1" page="1" pageScale="1" pageWidth="827" pageHeight="1169" math="0" shadow="0">
      <root>
        <mxCell id="0" />
        <mxCell id="1" parent="0" />
        <mxCell id="0rNgzk1Gw55AzvBIa4_6-2" value="&lt;p style=&quot;margin: 3pt 0cm 0cm; text-align: center; line-height: normal; background-image: initial; background-position: initial; background-size: initial; background-repeat: initial; background-attachment: initial; background-origin: initial; background-clip: initial;&quot; align=&quot;center&quot; class=&quot;MsoNormal&quot;&gt;&lt;font style=&quot;font-size: 24px;&quot;&gt;&lt;b style=&quot;&quot;&gt;Vector&lt;/b&gt;&lt;/font&gt;&lt;/p&gt;&lt;div style=&quot;margin-bottom:0cm;line-height:normal&quot; class=&quot;MsoNormal&quot;&gt;&lt;font size=&quot;3&quot;&gt;&lt;span style=&quot;font-family: &amp;quot;Times New Roman&amp;quot;, serif;&quot;&gt;&lt;br&gt;&lt;hr align=&quot;left&quot; noshade=&quot;&quot; width=&quot;100%&quot; size=&quot;1&quot;&gt;&lt;/span&gt;&lt;span style=&quot;background-color: initial; font-family: Helvetica, sans-serif;&quot;&gt;- m: int&lt;/span&gt;&lt;span style=&quot;font-family: &amp;quot;Times New Roman&amp;quot;, serif;&quot;&gt;&lt;br&gt;&lt;/span&gt;&lt;/font&gt;&lt;/div&gt;&lt;p style=&quot;margin-bottom:0cm;line-height:normal&quot; class=&quot;MsoNormal&quot;&gt;&lt;span style=&quot;font-family: Helvetica, sans-serif; background-color: initial;&quot;&gt;&lt;font size=&quot;3&quot;&gt;-&amp;nbsp;v:&amp;nbsp;double*&lt;/font&gt;&lt;/span&gt;&lt;/p&gt;&lt;div style=&quot;margin-bottom:0cm;line-height:normal&quot; class=&quot;MsoNormal&quot;&gt;&lt;span style=&quot;font-family: &amp;quot;Times New Roman&amp;quot;, serif;&quot;&gt;&lt;font size=&quot;3&quot;&gt;&lt;br&gt;&lt;hr align=&quot;left&quot; noshade=&quot;&quot; width=&quot;100%&quot; size=&quot;1&quot;&gt;&lt;/font&gt;&lt;/span&gt;&lt;/div&gt;&lt;p style=&quot;margin-bottom: 0cm; line-height: normal; background-image: initial; background-position: initial; background-size: initial; background-repeat: initial; background-attachment: initial; background-origin: initial; background-clip: initial;&quot; class=&quot;MsoNormal&quot;&gt;&lt;font size=&quot;3&quot;&gt;&lt;span style=&quot;font-family: Helvetica, sans-serif;&quot;&gt;+ Vector()&lt;/span&gt;&lt;span style=&quot;font-family: Helvetica, sans-serif;&quot;&gt;&lt;/span&gt;&lt;/font&gt;&lt;/p&gt;&lt;p style=&quot;margin-bottom: 0cm; line-height: normal; background-image: initial; background-position: initial; background-size: initial; background-repeat: initial; background-attachment: initial; background-origin: initial; background-clip: initial;&quot; class=&quot;MsoNormal&quot;&gt;&lt;font size=&quot;3&quot;&gt;&lt;span style=&quot;font-family: Helvetica, sans-serif;&quot;&gt;+ Vector(int)&lt;/span&gt;&lt;span style=&quot;font-family: Helvetica, sans-serif;&quot;&gt;&lt;/span&gt;&lt;/font&gt;&lt;/p&gt;&lt;p style=&quot;margin-bottom: 0cm; line-height: normal; background-image: initial; background-position: initial; background-size: initial; background-repeat: initial; background-attachment: initial; background-origin: initial; background-clip: initial;&quot; class=&quot;MsoNormal&quot;&gt;&lt;font size=&quot;3&quot;&gt;&lt;span style=&quot;font-family: Helvetica, sans-serif;&quot;&gt;+ ~Vector()&lt;/span&gt;&lt;span style=&quot;font-family: Helvetica, sans-serif;&quot;&gt;&lt;/span&gt;&lt;/font&gt;&lt;/p&gt;&lt;p style=&quot;margin-bottom: 0cm; line-height: normal; background-image: initial; background-position: initial; background-size: initial; background-repeat: initial; background-attachment: initial; background-origin: initial; background-clip: initial;&quot; class=&quot;MsoNormal&quot;&gt;&lt;span style=&quot;font-family: Helvetica, sans-serif;&quot;&gt;&lt;font size=&quot;3&quot;&gt;+&amp;nbsp;add():&amp;nbsp;void&lt;/font&gt;&lt;/span&gt;&lt;/p&gt;&lt;p style=&quot;margin-bottom: 0cm; line-height: normal; background-image: initial; background-position: initial; background-size: initial; background-repeat: initial; background-attachment: initial; background-origin: initial; background-clip: initial;&quot; class=&quot;MsoNormal&quot;&gt;&lt;span style=&quot;font-family: Helvetica, sans-serif;&quot;&gt;&lt;font size=&quot;3&quot;&gt;+&amp;nbsp;add(ifstream&amp;amp;):&amp;nbsp;void&lt;/font&gt;&lt;/span&gt;&lt;/p&gt;&lt;p style=&quot;margin-bottom: 0cm; line-height: normal; background-image: initial; background-position: initial; background-size: initial; background-repeat: initial; background-attachment: initial; background-origin: initial; background-clip: initial;&quot; class=&quot;MsoNormal&quot;&gt;&lt;span style=&quot;font-family: Helvetica, sans-serif;&quot;&gt;&lt;font size=&quot;3&quot;&gt;+&amp;nbsp;xuat():&amp;nbsp;void&lt;/font&gt;&lt;/span&gt;&lt;/p&gt;&lt;p style=&quot;margin-bottom: 0cm; line-height: normal; background-image: initial; background-position: initial; background-size: initial; background-repeat: initial; background-attachment: initial; background-origin: initial; background-clip: initial;&quot; class=&quot;MsoNormal&quot;&gt;&lt;span style=&quot;font-family: Helvetica, sans-serif;&quot;&gt;&lt;font size=&quot;3&quot;&gt;+&amp;nbsp;xuat(oftream&amp;amp;):&amp;nbsp;void&lt;/font&gt;&lt;/span&gt;&lt;/p&gt;&lt;p style=&quot;margin-bottom: 0cm; line-height: normal; background-image: initial; background-position: initial; background-size: initial; background-repeat: initial; background-attachment: initial; background-origin: initial; background-clip: initial;&quot; class=&quot;MsoNormal&quot;&gt;&lt;span style=&quot;font-family: Helvetica, sans-serif;&quot;&gt;&lt;font size=&quot;3&quot;&gt;+ Vector(const Vector &amp;amp;)&lt;/font&gt;&lt;/span&gt;&lt;/p&gt;&lt;p style=&quot;margin-bottom: 0cm; line-height: normal; background-image: initial; background-position: initial; background-size: initial; background-repeat: initial; background-attachment: initial; background-origin: initial; background-clip: initial;&quot; class=&quot;MsoNormal&quot;&gt;&lt;span style=&quot;font-family: Helvetica, sans-serif;&quot;&gt;&lt;font size=&quot;3&quot;&gt;+&amp;nbsp;ktra_Vector_doiXung():&amp;nbsp;void&lt;/font&gt;&lt;/span&gt;&lt;/p&gt;&lt;p style=&quot;margin-bottom: 0cm; line-height: normal; background-image: initial; background-position: initial; background-size: initial; background-repeat: initial; background-attachment: initial; background-origin: initial; background-clip: initial;&quot; class=&quot;MsoNormal&quot;&gt;&lt;span style=&quot;font-family: Helvetica, sans-serif;&quot;&gt;&lt;font size=&quot;3&quot;&gt;+&amp;nbsp;ktra_Vector_hoanVi():&amp;nbsp;void&lt;/font&gt;&lt;/span&gt;&lt;/p&gt;&lt;p style=&quot;margin-bottom: 0cm; line-height: normal; background-image: initial; background-position: initial; background-size: initial; background-repeat: initial; background-attachment: initial; background-origin: initial; background-clip: initial;&quot; class=&quot;MsoNormal&quot;&gt;&lt;font size=&quot;3&quot;&gt;&lt;span style=&quot;font-family: Helvetica, sans-serif;&quot;&gt;+&amp;nbsp;friend&amp;nbsp;Cong_2_Vector(Vector&amp;amp;, Vector&amp;amp;):&amp;nbsp;Vector&lt;/span&gt;&lt;span style=&quot;font-family: Helvetica, sans-serif;&quot;&gt;&lt;/span&gt;&lt;/font&gt;&lt;/p&gt;&lt;p style=&quot;margin-bottom: 0cm; line-height: normal; background-image: initial; background-position: initial; background-size: initial; background-repeat: initial; background-attachment: initial; background-origin: initial; background-clip: initial;&quot; class=&quot;MsoNormal&quot;&gt;&lt;font size=&quot;3&quot;&gt;&lt;span style=&quot;font-family: Helvetica, sans-serif;&quot;&gt;+&amp;nbsp;friend&amp;nbsp;Tru_2_Vector(Vector&amp;amp;, Vector&amp;amp;):&amp;nbsp;Vector&lt;/span&gt;&lt;span style=&quot;font-family: Helvetica, sans-serif;&quot;&gt;&lt;/span&gt;&lt;/font&gt;&lt;/p&gt;&lt;p style=&quot;margin-bottom: 0cm; line-height: normal; background-image: initial; background-position: initial; background-size: initial; background-repeat: initial; background-attachment: initial; background-origin: initial; background-clip: initial;&quot; class=&quot;MsoNormal&quot;&gt;&lt;font size=&quot;3&quot;&gt;&lt;span style=&quot;font-family: Helvetica, sans-serif;&quot;&gt;+&amp;nbsp;friend&amp;nbsp;Nhan_2_Vector(Vector&amp;amp;, Vector&amp;amp;):&amp;nbsp;Vector&lt;/span&gt;&lt;span style=&quot;font-family: Helvetica, sans-serif;&quot;&gt;&lt;/span&gt;&lt;/font&gt;&lt;/p&gt;&lt;p style=&quot;margin-bottom: 0cm; line-height: normal; background-image: initial; background-position: initial; background-size: initial; background-repeat: initial; background-attachment: initial; background-origin: initial; background-clip: initial;&quot; class=&quot;MsoNormal&quot;&gt;&lt;font size=&quot;3&quot;&gt;&lt;span style=&quot;font-family: Helvetica, sans-serif;&quot;&gt;+&amp;nbsp;friend&amp;nbsp;nhan_1_so_voi_1_vector(Vector&amp;amp;, double&amp;amp;):&amp;nbsp;Vector&lt;/span&gt;&lt;span style=&quot;font-family: Helvetica, sans-serif;&quot;&gt;&lt;/span&gt;&lt;/font&gt;&lt;/p&gt;&lt;p style=&quot;margin-bottom: 0cm; line-height: normal; background-image: initial; background-position: initial; background-size: initial; background-repeat: initial; background-attachment: initial; background-origin: initial; background-clip: initial;&quot; class=&quot;MsoNormal&quot;&gt;&lt;font size=&quot;3&quot;&gt;&lt;span style=&quot;font-family: Helvetica, sans-serif;&quot;&gt;+&amp;nbsp;&lt;/span&gt;&lt;span style=&quot;font-family: Consolas;&quot;&gt;getSoPhantu():&amp;nbsp;int&lt;/span&gt;&lt;span style=&quot;font-size:&lt;br/&gt;9.0pt;font-family:&amp;quot;Helvetica&amp;quot;,sans-serif;mso-fareast-font-family:&amp;quot;Times New Roman&amp;quot;;&lt;br/&gt;mso-bidi-font-family:&amp;quot;Times New Roman&amp;quot;;mso-font-kerning:0pt;mso-ligatures:none;&lt;br/&gt;mso-fareast-language:VI&quot;&gt;&lt;/span&gt;&lt;/font&gt;&lt;/p&gt;&lt;p style=&quot;margin:0px;margin-top:4px;text-align:center;&quot;&gt;&lt;font size=&quot;3&quot;&gt;&lt;br&gt;&lt;br&gt;&lt;br&gt;&lt;br&gt;&lt;br&gt;&lt;br&gt;&lt;br&gt;&lt;br&gt;&lt;br&gt;&lt;br&gt;&lt;br&gt;&lt;br&gt;&lt;br&gt;&lt;br&gt;&lt;br&gt;&lt;br&gt;&lt;br&gt;&lt;br&gt;&lt;br&gt;&lt;br&gt;&lt;br&gt;&lt;br&gt;&lt;br&gt;&lt;br&gt;&lt;br&gt;&lt;br&gt;&lt;br&gt;&lt;br&gt;&lt;br&gt;&lt;br&gt;&lt;br&gt;&lt;br&gt;&lt;br&gt;&lt;br&gt;&lt;br&gt;&lt;br&gt;&lt;br&gt;&lt;br&gt;&lt;br&gt;&lt;br&gt;&lt;/font&gt;&lt;/p&gt;&lt;p class=&quot;MsoNormal&quot;&gt;&lt;font size=&quot;3&quot;&gt;&amp;nbsp;&lt;/font&gt;&lt;/p&gt;&lt;p style=&quot;line-height: normal; margin: 0pt 0in; text-indent: 0in; direction: ltr; unicode-bidi: embed; word-break: normal;&quot;&gt;&lt;/p&gt;" style="verticalAlign=top;align=left;overflow=fill;fontSize=12;fontFamily=Helvetica;html=1;whiteSpace=wrap;" parent="1" vertex="1">
          <mxGeometry x="350" y="161" width="440" height="619" as="geometry" />
        </mxCell>
        <mxCell id="0rNgzk1Gw55AzvBIa4_6-6" value="&lt;p style=&quot;margin: 3pt 0cm 0cm; text-align: center; line-height: normal; background-image: initial; background-position: initial; background-size: initial; background-repeat: initial; background-attachment: initial; background-origin: initial; background-clip: initial;&quot; align=&quot;center&quot; class=&quot;MsoNormal&quot;&gt;&lt;span style=&quot;font-style: normal;&quot;&gt;&lt;font style=&quot;font-size: 24px;&quot;&gt;&lt;font style=&quot;&quot;&gt;&lt;b style=&quot;&quot;&gt;Matrix&lt;/b&gt;&lt;/font&gt;&lt;span style=&quot;font-family: Helvetica, sans-serif;&quot;&gt;&lt;/span&gt;&lt;/font&gt;&lt;/span&gt;&lt;/p&gt;&lt;div style=&quot;margin-bottom:0cm;line-height:normal&quot; class=&quot;MsoNormal&quot;&gt;&lt;span style=&quot;font-size: 12pt; font-family: &amp;quot;Times New Roman&amp;quot;, serif; font-style: normal;&quot;&gt;&lt;br&gt;&lt;hr align=&quot;left&quot; noshade=&quot;&quot; width=&quot;100%&quot; size=&quot;1&quot;&gt;&lt;/span&gt;&lt;/div&gt;&lt;p style=&quot;margin-bottom: 0cm; line-height: normal; background-image: initial; background-position: initial; background-size: initial; background-repeat: initial; background-attachment: initial; background-origin: initial; background-clip: initial;&quot; class=&quot;MsoNormal&quot;&gt;&lt;span style=&quot;font-style: normal;&quot;&gt;&lt;span style=&quot;font-size: 12pt; font-family: Helvetica, sans-serif;&quot;&gt;- m:&amp;nbsp;int&lt;/span&gt;&lt;span style=&quot;font-size:9.0pt;font-family:&amp;quot;Helvetica&amp;quot;,sans-serif;&lt;br/&gt;mso-fareast-font-family:&amp;quot;Times New Roman&amp;quot;;mso-bidi-font-family:&amp;quot;Times New Roman&amp;quot;;&lt;br/&gt;mso-font-kerning:0pt;mso-ligatures:none;mso-fareast-language:VI&quot;&gt;&lt;/span&gt;&lt;/span&gt;&lt;/p&gt;&lt;p style=&quot;margin-bottom: 0cm; line-height: normal; background-image: initial; background-position: initial; background-size: initial; background-repeat: initial; background-attachment: initial; background-origin: initial; background-clip: initial;&quot; class=&quot;MsoNormal&quot;&gt;&lt;span style=&quot;font-style: normal;&quot;&gt;&lt;span style=&quot;font-size: 12pt; font-family: Helvetica, sans-serif;&quot;&gt;- n:&amp;nbsp;int&lt;/span&gt;&lt;span style=&quot;font-size:9.0pt;font-family:&amp;quot;Helvetica&amp;quot;,sans-serif;&lt;br/&gt;mso-fareast-font-family:&amp;quot;Times New Roman&amp;quot;;mso-bidi-font-family:&amp;quot;Times New Roman&amp;quot;;&lt;br/&gt;mso-font-kerning:0pt;mso-ligatures:none;mso-fareast-language:VI&quot;&gt;&lt;/span&gt;&lt;/span&gt;&lt;/p&gt;&lt;p style=&quot;margin-bottom: 0cm; line-height: normal; background-image: initial; background-position: initial; background-size: initial; background-repeat: initial; background-attachment: initial; background-origin: initial; background-clip: initial;&quot; class=&quot;MsoNormal&quot;&gt;&lt;span style=&quot;font-style: normal;&quot;&gt;&lt;span style=&quot;font-size: 13.5pt; font-family: Helvetica, sans-serif;&quot;&gt;-&amp;nbsp;v:&amp;nbsp;double**&lt;/span&gt;&lt;span style=&quot;font-size:9.0pt;font-family:&lt;br/&gt;&amp;quot;Helvetica&amp;quot;,sans-serif;mso-fareast-font-family:&amp;quot;Times New Roman&amp;quot;;mso-bidi-font-family:&lt;br/&gt;&amp;quot;Times New Roman&amp;quot;;mso-font-kerning:0pt;mso-ligatures:none;mso-fareast-language:&lt;br/&gt;VI&quot;&gt;&lt;/span&gt;&lt;/span&gt;&lt;/p&gt;&lt;div style=&quot;margin-bottom:0cm;line-height:normal&quot; class=&quot;MsoNormal&quot;&gt;&lt;span style=&quot;font-size: 12pt; font-family: &amp;quot;Times New Roman&amp;quot;, serif; font-style: normal;&quot;&gt;&lt;br&gt;&lt;hr align=&quot;left&quot; noshade=&quot;&quot; width=&quot;100%&quot; size=&quot;1&quot;&gt;&lt;/span&gt;&lt;/div&gt;&lt;p style=&quot;margin-bottom: 0cm; line-height: normal; background-image: initial; background-position: initial; background-size: initial; background-repeat: initial; background-attachment: initial; background-origin: initial; background-clip: initial;&quot; class=&quot;MsoNormal&quot;&gt;&lt;span style=&quot;font-style: normal;&quot;&gt;&lt;span style=&quot;font-size: 12pt; font-family: Helvetica, sans-serif;&quot;&gt;+ Matrix()&lt;/span&gt;&lt;span style=&quot;font-size:9.0pt;font-family:&amp;quot;Helvetica&amp;quot;,sans-serif;&lt;br/&gt;mso-fareast-font-family:&amp;quot;Times New Roman&amp;quot;;mso-bidi-font-family:&amp;quot;Times New Roman&amp;quot;;&lt;br/&gt;mso-font-kerning:0pt;mso-ligatures:none;mso-fareast-language:VI&quot;&gt;&lt;/span&gt;&lt;/span&gt;&lt;/p&gt;&lt;p style=&quot;margin-bottom: 0cm; line-height: normal; background-image: initial; background-position: initial; background-size: initial; background-repeat: initial; background-attachment: initial; background-origin: initial; background-clip: initial;&quot; class=&quot;MsoNormal&quot;&gt;&lt;span style=&quot;font-style: normal;&quot;&gt;&lt;span style=&quot;font-size: 12pt; font-family: Helvetica, sans-serif;&quot;&gt;+ Matrix(int, int)&lt;/span&gt;&lt;span style=&quot;font-size:9.0pt;font-family:&amp;quot;Helvetica&amp;quot;,sans-serif;&lt;br/&gt;mso-fareast-font-family:&amp;quot;Times New Roman&amp;quot;;mso-bidi-font-family:&amp;quot;Times New Roman&amp;quot;;&lt;br/&gt;mso-font-kerning:0pt;mso-ligatures:none;mso-fareast-language:VI&quot;&gt;&lt;/span&gt;&lt;/span&gt;&lt;/p&gt;&lt;p style=&quot;margin-bottom: 0cm; line-height: normal; background-image: initial; background-position: initial; background-size: initial; background-repeat: initial; background-attachment: initial; background-origin: initial; background-clip: initial;&quot; class=&quot;MsoNormal&quot;&gt;&lt;span style=&quot;font-style: normal;&quot;&gt;&lt;span style=&quot;font-size: 12pt; font-family: Helvetica, sans-serif;&quot;&gt;+ Matrix(int, int, double**)&lt;/span&gt;&lt;span style=&quot;font-size:9.0pt;&lt;br/&gt;font-family:&amp;quot;Helvetica&amp;quot;,sans-serif;mso-fareast-font-family:&amp;quot;Times New Roman&amp;quot;;&lt;br/&gt;mso-bidi-font-family:&amp;quot;Times New Roman&amp;quot;;mso-font-kerning:0pt;mso-ligatures:none;&lt;br/&gt;mso-fareast-language:VI&quot;&gt;&lt;/span&gt;&lt;/span&gt;&lt;/p&gt;&lt;p style=&quot;margin-bottom: 0cm; line-height: normal; background-image: initial; background-position: initial; background-size: initial; background-repeat: initial; background-attachment: initial; background-origin: initial; background-clip: initial;&quot; class=&quot;MsoNormal&quot;&gt;&lt;span style=&quot;font-style: normal;&quot;&gt;&lt;span style=&quot;font-size: 12pt; font-family: Helvetica, sans-serif;&quot;&gt;+&amp;nbsp;add():&amp;nbsp;void&lt;/span&gt;&lt;span style=&quot;font-size:9.0pt;font-family:&lt;br/&gt;&amp;quot;Helvetica&amp;quot;,sans-serif;mso-fareast-font-family:&amp;quot;Times New Roman&amp;quot;;mso-bidi-font-family:&lt;br/&gt;&amp;quot;Times New Roman&amp;quot;;mso-font-kerning:0pt;mso-ligatures:none;mso-fareast-language:&lt;br/&gt;VI&quot;&gt;&lt;/span&gt;&lt;/span&gt;&lt;/p&gt;&lt;p style=&quot;margin-bottom: 0cm; line-height: normal; background-image: initial; background-position: initial; background-size: initial; background-repeat: initial; background-attachment: initial; background-origin: initial; background-clip: initial;&quot; class=&quot;MsoNormal&quot;&gt;&lt;span style=&quot;font-style: normal;&quot;&gt;&lt;span style=&quot;font-size: 12pt; font-family: Helvetica, sans-serif;&quot;&gt;+&amp;nbsp;add(ifstream&amp;amp;):&amp;nbsp;void&lt;/span&gt;&lt;span style=&quot;font-size:9.0pt;&lt;br/&gt;font-family:&amp;quot;Helvetica&amp;quot;,sans-serif;mso-fareast-font-family:&amp;quot;Times New Roman&amp;quot;;&lt;br/&gt;mso-bidi-font-family:&amp;quot;Times New Roman&amp;quot;;mso-font-kerning:0pt;mso-ligatures:none;&lt;br/&gt;mso-fareast-language:VI&quot;&gt;&lt;/span&gt;&lt;/span&gt;&lt;/p&gt;&lt;p style=&quot;margin-bottom: 0cm; line-height: normal; background-image: initial; background-position: initial; background-size: initial; background-repeat: initial; background-attachment: initial; background-origin: initial; background-clip: initial;&quot; class=&quot;MsoNormal&quot;&gt;&lt;span style=&quot;font-style: normal;&quot;&gt;&lt;span style=&quot;font-size: 12pt; font-family: Helvetica, sans-serif;&quot;&gt;+&amp;nbsp;xuat():&amp;nbsp;void&lt;/span&gt;&lt;span style=&quot;font-size:9.0pt;font-family:&lt;br/&gt;&amp;quot;Helvetica&amp;quot;,sans-serif;mso-fareast-font-family:&amp;quot;Times New Roman&amp;quot;;mso-bidi-font-family:&lt;br/&gt;&amp;quot;Times New Roman&amp;quot;;mso-font-kerning:0pt;mso-ligatures:none;mso-fareast-language:&lt;br/&gt;VI&quot;&gt;&lt;/span&gt;&lt;/span&gt;&lt;/p&gt;&lt;p style=&quot;margin-bottom: 0cm; line-height: normal; background-image: initial; background-position: initial; background-size: initial; background-repeat: initial; background-attachment: initial; background-origin: initial; background-clip: initial;&quot; class=&quot;MsoNormal&quot;&gt;&lt;span style=&quot;font-style: normal;&quot;&gt;&lt;span style=&quot;font-size: 12pt; font-family: Helvetica, sans-serif;&quot;&gt;+&amp;nbsp;xuat(ifstream&amp;amp;):&amp;nbsp;void&lt;/span&gt;&lt;span style=&quot;font-size:9.0pt;&lt;br/&gt;font-family:&amp;quot;Helvetica&amp;quot;,sans-serif;mso-fareast-font-family:&amp;quot;Times New Roman&amp;quot;;&lt;br/&gt;mso-bidi-font-family:&amp;quot;Times New Roman&amp;quot;;mso-font-kerning:0pt;mso-ligatures:none;&lt;br/&gt;mso-fareast-language:VI&quot;&gt;&lt;/span&gt;&lt;/span&gt;&lt;/p&gt;&lt;p style=&quot;margin-bottom: 0cm; line-height: normal; background-image: initial; background-position: initial; background-size: initial; background-repeat: initial; background-attachment: initial; background-origin: initial; background-clip: initial;&quot; class=&quot;MsoNormal&quot;&gt;&lt;span style=&quot;font-style: normal;&quot;&gt;&lt;span style=&quot;font-size: 12pt; font-family: Helvetica, sans-serif;&quot;&gt;+&amp;nbsp;friend&amp;nbsp;Cong_2_Ma_Tran(Matrix&amp;amp;, Matrix&amp;amp;):&amp;nbsp;Matrix&lt;/span&gt;&lt;span style=&quot;font-size:9.0pt;font-family:&amp;quot;Helvetica&amp;quot;,sans-serif;mso-fareast-font-family:&lt;br/&gt;&amp;quot;Times New Roman&amp;quot;;mso-bidi-font-family:&amp;quot;Times New Roman&amp;quot;;mso-font-kerning:0pt;&lt;br/&gt;mso-ligatures:none;mso-fareast-language:VI&quot;&gt;&lt;/span&gt;&lt;/span&gt;&lt;/p&gt;&lt;p style=&quot;margin-bottom: 0cm; line-height: normal; background-image: initial; background-position: initial; background-size: initial; background-repeat: initial; background-attachment: initial; background-origin: initial; background-clip: initial;&quot; class=&quot;MsoNormal&quot;&gt;&lt;span style=&quot;font-style: normal;&quot;&gt;&lt;span style=&quot;font-size: 12pt; font-family: Helvetica, sans-serif;&quot;&gt;+&amp;nbsp;friend&amp;nbsp;Tru_2_Ma_Tran(Matrix&amp;amp;, Matrix&amp;amp;):&amp;nbsp;Matrix&lt;/span&gt;&lt;span style=&quot;font-size:9.0pt;font-family:&amp;quot;Helvetica&amp;quot;,sans-serif;mso-fareast-font-family:&lt;br/&gt;&amp;quot;Times New Roman&amp;quot;;mso-bidi-font-family:&amp;quot;Times New Roman&amp;quot;;mso-font-kerning:0pt;&lt;br/&gt;mso-ligatures:none;mso-fareast-language:VI&quot;&gt;&lt;/span&gt;&lt;/span&gt;&lt;/p&gt;&lt;p style=&quot;margin-bottom: 0cm; line-height: normal; background-image: initial; background-position: initial; background-size: initial; background-repeat: initial; background-attachment: initial; background-origin: initial; background-clip: initial;&quot; class=&quot;MsoNormal&quot;&gt;&lt;span style=&quot;font-style: normal;&quot;&gt;&lt;span style=&quot;font-size: 12pt; font-family: Helvetica, sans-serif;&quot;&gt;+&amp;nbsp;friend&amp;nbsp;Nhan_2_Ma_Tran(Matrix&amp;amp;, Matrix&amp;amp;):&amp;nbsp;Matrix&lt;/span&gt;&lt;span style=&quot;font-size:9.0pt;font-family:&amp;quot;Helvetica&amp;quot;,sans-serif;mso-fareast-font-family:&lt;br/&gt;&amp;quot;Times New Roman&amp;quot;;mso-bidi-font-family:&amp;quot;Times New Roman&amp;quot;;mso-font-kerning:0pt;&lt;br/&gt;mso-ligatures:none;mso-fareast-language:VI&quot;&gt;&lt;/span&gt;&lt;/span&gt;&lt;/p&gt;&lt;p style=&quot;margin-bottom: 0cm; line-height: normal; background-image: initial; background-position: initial; background-size: initial; background-repeat: initial; background-attachment: initial; background-origin: initial; background-clip: initial;&quot; class=&quot;MsoNormal&quot;&gt;&lt;span style=&quot;font-style: normal;&quot;&gt;&lt;span style=&quot;font-size: 12pt; font-family: Helvetica, sans-serif;&quot;&gt;+&amp;nbsp;friend&amp;nbsp;Nhan_1_so_voi_1_Ma_Tran(Matrix&amp;amp;, double&amp;amp;):&amp;nbsp;Matrix&lt;/span&gt;&lt;span style=&quot;font-size:9.0pt;font-family:&amp;quot;Helvetica&amp;quot;,sans-serif;mso-fareast-font-family:&lt;br/&gt;&amp;quot;Times New Roman&amp;quot;;mso-bidi-font-family:&amp;quot;Times New Roman&amp;quot;;mso-font-kerning:0pt;&lt;br/&gt;mso-ligatures:none;mso-fareast-language:VI&quot;&gt;&lt;/span&gt;&lt;/span&gt;&lt;/p&gt;&lt;p style=&quot;margin-bottom: 0cm; line-height: normal; background-image: initial; background-position: initial; background-size: initial; background-repeat: initial; background-attachment: initial; background-origin: initial; background-clip: initial;&quot; class=&quot;MsoNormal&quot;&gt;&lt;span style=&quot;font-style: normal;&quot;&gt;&lt;span style=&quot;font-size: 12pt; font-family: Helvetica, sans-serif;&quot;&gt;+&amp;nbsp;friend&amp;nbsp;MA_Tran_chuyen_vi(Matrix&amp;amp;):&amp;nbsp;Matrix&lt;/span&gt;&lt;span style=&quot;font-size:9.0pt;font-family:&amp;quot;Helvetica&amp;quot;,sans-serif;mso-fareast-font-family:&lt;br/&gt;&amp;quot;Times New Roman&amp;quot;;mso-bidi-font-family:&amp;quot;Times New Roman&amp;quot;;mso-font-kerning:0pt;&lt;br/&gt;mso-ligatures:none;mso-fareast-language:VI&quot;&gt;&lt;/span&gt;&lt;/span&gt;&lt;/p&gt;&lt;p style=&quot;margin-bottom: 0cm; line-height: normal; background-image: initial; background-position: initial; background-size: initial; background-repeat: initial; background-attachment: initial; background-origin: initial; background-clip: initial;&quot; class=&quot;MsoNormal&quot;&gt;&lt;span style=&quot;font-style: normal;&quot;&gt;&lt;span style=&quot;font-size: 12pt; font-family: Helvetica, sans-serif;&quot;&gt;+&amp;nbsp;friend&amp;nbsp;MA_Tran_Nghich_dao(Matrix&amp;amp;):&amp;nbsp;Matrix&lt;/span&gt;&lt;span style=&quot;font-size:9.0pt;font-family:&amp;quot;Helvetica&amp;quot;,sans-serif;mso-fareast-font-family:&lt;br/&gt;&amp;quot;Times New Roman&amp;quot;;mso-bidi-font-family:&amp;quot;Times New Roman&amp;quot;;mso-font-kerning:0pt;&lt;br/&gt;mso-ligatures:none;mso-fareast-language:VI&quot;&gt;&lt;/span&gt;&lt;/span&gt;&lt;/p&gt;&lt;p style=&quot;margin-bottom: 0cm; line-height: normal; background-image: initial; background-position: initial; background-size: initial; background-repeat: initial; background-attachment: initial; background-origin: initial; background-clip: initial;&quot; class=&quot;MsoNormal&quot;&gt;&lt;span style=&quot;font-style: normal;&quot;&gt;&lt;span style=&quot;font-size: 12pt; font-family: Helvetica, sans-serif;&quot;&gt;+&amp;nbsp;ktra_MaTranTamGiac():&amp;nbsp;void&lt;/span&gt;&lt;span style=&quot;font-size:&lt;br/&gt;9.0pt;font-family:&amp;quot;Helvetica&amp;quot;,sans-serif;mso-fareast-font-family:&amp;quot;Times New Roman&amp;quot;;&lt;br/&gt;mso-bidi-font-family:&amp;quot;Times New Roman&amp;quot;;mso-font-kerning:0pt;mso-ligatures:none;&lt;br/&gt;mso-fareast-language:VI&quot;&gt;&lt;/span&gt;&lt;/span&gt;&lt;/p&gt;&lt;p style=&quot;margin-bottom: 0cm; line-height: normal; background-image: initial; background-position: initial; background-size: initial; background-repeat: initial; background-attachment: initial; background-origin: initial; background-clip: initial;&quot; class=&quot;MsoNormal&quot;&gt;&lt;span style=&quot;font-style: normal;&quot;&gt;&lt;span style=&quot;font-size: 12pt; font-family: Helvetica, sans-serif;&quot;&gt;+&amp;nbsp;ktra_MaTranDon_vi():&amp;nbsp;void&lt;/span&gt;&lt;span style=&quot;font-size:9.0pt;&lt;br/&gt;font-family:&amp;quot;Helvetica&amp;quot;,sans-serif;mso-fareast-font-family:&amp;quot;Times New Roman&amp;quot;;&lt;br/&gt;mso-bidi-font-family:&amp;quot;Times New Roman&amp;quot;;mso-font-kerning:0pt;mso-ligatures:none;&lt;br/&gt;mso-fareast-language:VI&quot;&gt;&lt;/span&gt;&lt;/span&gt;&lt;/p&gt;&lt;p style=&quot;margin-bottom: 0cm; line-height: normal; background-image: initial; background-position: initial; background-size: initial; background-repeat: initial; background-attachment: initial; background-origin: initial; background-clip: initial;&quot; class=&quot;MsoNormal&quot;&gt;&lt;span style=&quot;font-style: normal;&quot;&gt;&lt;span style=&quot;font-size: 12pt; font-family: Helvetica, sans-serif;&quot;&gt;+&amp;nbsp;Ktra_MaTran_DuongCheo():&amp;nbsp;void&lt;/span&gt;&lt;span style=&quot;font-size:&lt;br/&gt;9.0pt;font-family:&amp;quot;Helvetica&amp;quot;,sans-serif;mso-fareast-font-family:&amp;quot;Times New Roman&amp;quot;;&lt;br/&gt;mso-bidi-font-family:&amp;quot;Times New Roman&amp;quot;;mso-font-kerning:0pt;mso-ligatures:none;&lt;br/&gt;mso-fareast-language:VI&quot;&gt;&lt;/span&gt;&lt;/span&gt;&lt;/p&gt;&lt;p style=&quot;margin-bottom: 0cm; line-height: normal; background-image: initial; background-position: initial; background-size: initial; background-repeat: initial; background-attachment: initial; background-origin: initial; background-clip: initial;&quot; class=&quot;MsoNormal&quot;&gt;&lt;span style=&quot;font-style: normal;&quot;&gt;&lt;span style=&quot;font-size: 12pt; font-family: Helvetica, sans-serif;&quot;&gt;+&amp;nbsp;ktra_Ma_Tran_doi_xung():&amp;nbsp;void&lt;/span&gt;&lt;span style=&quot;font-size:&lt;br/&gt;9.0pt;font-family:&amp;quot;Helvetica&amp;quot;,sans-serif;mso-fareast-font-family:&amp;quot;Times New Roman&amp;quot;;&lt;br/&gt;mso-bidi-font-family:&amp;quot;Times New Roman&amp;quot;;mso-font-kerning:0pt;mso-ligatures:none;&lt;br/&gt;mso-fareast-language:VI&quot;&gt;&lt;/span&gt;&lt;/span&gt;&lt;/p&gt;&lt;p style=&quot;margin-bottom: 0cm; line-height: normal; background-image: initial; background-position: initial; background-size: initial; background-repeat: initial; background-attachment: initial; background-origin: initial; background-clip: initial;&quot; class=&quot;MsoNormal&quot;&gt;&lt;span style=&quot;font-style: normal;&quot;&gt;&lt;span style=&quot;font-size: 12pt; font-family: Helvetica, sans-serif;&quot;&gt;+&amp;nbsp;getSoHang():&amp;nbsp;int&lt;/span&gt;&lt;/span&gt;&lt;/p&gt;&lt;p style=&quot;margin:0px;margin-top:4px;text-align:center;&quot;&gt;&lt;br&gt;&lt;br&gt;&lt;br&gt;&lt;br&gt;&lt;br&gt;&lt;br&gt;&lt;br&gt;&lt;br&gt;&lt;br&gt;&lt;br&gt;&lt;br&gt;&lt;br&gt;&lt;br&gt;&lt;br&gt;&lt;br&gt;&lt;br&gt;&lt;br&gt;&lt;br&gt;&lt;br&gt;&lt;br&gt;&lt;br&gt;&lt;br&gt;&lt;br&gt;&lt;br&gt;&lt;br&gt;&lt;br&gt;&lt;br&gt;&lt;br&gt;&lt;br&gt;&lt;br&gt;&lt;br&gt;&lt;br&gt;&lt;br&gt;&lt;br&gt;&lt;br&gt;&lt;br&gt;&lt;/p&gt;&lt;p style=&quot;margin-bottom: 0cm; line-height: normal; background-image: initial; background-position: initial; background-size: initial; background-repeat: initial; background-attachment: initial; background-origin: initial; background-clip: initial;&quot; class=&quot;MsoNormal&quot;&gt;&lt;span style=&quot;font-size: 12pt; font-family: Helvetica, sans-serif; font-style: normal;&quot;&gt;+&amp;nbsp;getSoCot():&amp;nbsp;int&lt;/span&gt;&lt;i&gt;&lt;span style=&quot;font-size:9.0pt;&lt;br/&gt;font-family:&amp;quot;Helvetica&amp;quot;,sans-serif;mso-fareast-font-family:&amp;quot;Times New Roman&amp;quot;;&lt;br/&gt;mso-bidi-font-family:&amp;quot;Times New Roman&amp;quot;;mso-font-kerning:0pt;mso-ligatures:none;&lt;br/&gt;mso-fareast-language:VI&quot;&gt;&lt;/span&gt;&lt;/i&gt;&lt;/p&gt;" style="verticalAlign=top;align=left;overflow=fill;fontSize=12;fontFamily=Helvetica;html=1;whiteSpace=wrap;fontStyle=2" parent="1" vertex="1">
          <mxGeometry x="870" y="160" width="470" height="760" as="geometry" />
        </mxCell>
      </root>
    </mxGraphModel>
  </diagram>
</mxfile>
